<svg width="227" height="227" viewBox="0 0 227 227" fill="none" xmlns="http://www.w3.org/2000/svg">
<path d="M131.806 22.2992C136.68 20.1849 148.013 18.451 168.074 31.774C186.687 44.1356 190.8 54.2864 191.365 59.9624C191.593 60.0319 191.819 60.1192 192.045 60.2251C197.03 62.5725 205.374 69.909 209.928 92.824C214.621 116.445 208.707 126.267 204.898 129.972C204.584 130.277 204.24 130.524 203.876 130.721C204.138 131.043 204.361 131.403 204.536 131.805C206.65 136.68 208.384 148.013 195.061 168.074C182.135 187.535 171.628 191.147 166.124 191.423C165.87 191.435 165.622 191.429 165.38 191.405C162.677 196.441 154.992 204.23 133.145 208.571C109.525 213.264 99.7028 207.351 95.9983 203.542C95.861 203.401 95.7355 203.253 95.6206 203.101C95.1733 203.613 94.6249 204.037 93.9603 204.325C89.0855 206.439 77.7525 208.172 57.6922 194.849C38.2303 181.924 34.6184 171.416 34.3432 165.913C34.3309 165.667 34.3364 165.427 34.3582 165.192C29.3241 162.522 21.4835 154.867 17.1224 132.919C12.4292 109.299 18.3427 99.4768 22.1519 95.7724C22.2598 95.6675 22.3714 95.5698 22.4858 95.478C22.4149 95.3497 22.3488 95.2168 22.2889 95.0788C20.1746 90.2042 18.4406 78.8705 31.7639 58.8095C44.1404 40.1743 54.3006 36.0734 59.9726 35.5168C60.044 35.2747 60.1351 35.0337 60.2477 34.7947C62.595 29.8097 69.9315 21.4649 92.8466 16.9116C116.466 12.2184 126.289 18.1309 129.993 21.9402C130.295 22.2499 130.54 22.5882 130.736 22.947C131.054 22.6898 131.41 22.4711 131.806 22.2992ZM114.116 112.995L128.625 115.861C128.626 115.857 128.627 115.853 128.627 115.849L114.106 112.98L114.116 112.995ZM140.447 118.19L142.442 118.591L197.139 129.397C197.141 129.396 197.143 129.393 197.145 129.391C197.144 129.389 197.143 129.387 197.142 129.385L142.445 118.579L140.447 118.19Z" fill="white"/>
<path d="M112.887 119.003L45.9201 163.875C45.9201 163.875 53.2048 176.017 67.7385 185.004C82.2721 193.992 97.4782 196.996 97.4782 196.996L112.887 119.003Z" fill="#FFDF8D"/>
<path fill-rule="evenodd" clip-rule="evenodd" d="M101.977 133.828C104.593 132.337 107.529 131.925 110.269 132.452L105.499 156.204C102.214 155.523 99.2284 153.489 97.4382 150.348C94.128 144.539 96.1602 137.143 101.977 133.828Z" fill="#F44336"/>
<circle cx="68.7513" cy="156.663" r="3" transform="rotate(11.1758 68.7513 156.663)" fill="#F44336"/>
<circle cx="68.3813" cy="166.273" r="4.5" transform="rotate(11.1758 68.3813 166.273)" fill="#F44336"/>
<circle cx="84.7068" cy="186.827" r="6.5" transform="rotate(11.1758 84.7068 186.827)" fill="#F44336"/>
<path d="M91.3204 188.303L92.5802 190.059C93.2829 191.038 94.5753 191.391 95.6785 190.906L95.8553 190.828C97.548 190.083 99.4205 191.423 99.2621 193.265C99.0993 195.159 98.2638 196.972 96.5202 197.728C92.3281 199.546 82.5818 201.037 65.3296 189.579C48.8702 178.648 45.5934 169.727 45.2641 164.933C45.0926 162.435 46.9713 160.537 49.2607 159.524L49.4684 159.432C50.044 159.177 50.7003 159.177 51.2759 159.432C52.1449 159.816 52.6753 160.708 52.598 161.655L52.0653 168.183C51.9016 170.189 53.7217 171.784 55.6895 171.359L60.4099 170.338C62.2133 169.948 63.9379 171.263 64.0394 173.105L64.385 179.381C64.4848 181.193 66.1571 182.502 67.9395 182.164L71.2828 181.53C72.7305 181.255 74.1632 182.073 74.6635 183.459L75.227 185.019C75.595 186.039 76.7425 186.541 77.7412 186.12C79.0267 185.578 80.4367 186.567 80.3652 187.96L80.3172 188.895C80.1921 191.333 83.2962 192.464 84.7694 190.517L86.4907 188.242C87.7101 186.631 90.142 186.661 91.3204 188.303Z" fill="#FFC261"/>
<path d="M100.899 144.031C99.6778 143.709 97.0803 143.89 96.7225 143.975C96.4552 143.772 96.0538 143.41 95.4488 142.98C94.5773 142.502 94.0745 142.004 93.3692 141.912C92.2841 141.769 90.6009 141.517 90.2905 142.181C89.8587 143.105 90.0004 144.852 90.512 145.857C90.8212 146.464 91.1055 147.067 91.5996 147.545C92.1132 148.041 93.3344 148.383 93.0691 148.922C92.8164 149.436 92.4855 150.628 92.7562 151.675C92.9307 152.351 93.7656 153.967 94.8698 154.401C95.16 154.514 95.9046 154.842 96.7813 154.503C97.8599 154.086 98.6459 153.52 99.2169 152.819C99.4884 152.486 99.7546 151.884 99.6092 151.185C99.4132 150.244 98.2991 149.562 98.7049 149.233C98.8412 149.122 99.2134 149.152 99.6294 149.061C100.327 148.91 101.121 148.852 101.477 148.156C101.774 147.575 102.286 145.919 101.701 144.955C101.525 144.663 101.359 144.152 100.899 144.031Z" stroke="#007C37" stroke-width="2" stroke-linecap="round"/>
<path d="M87.2841 184.154C87.0345 183.857 86.7253 183.021 86.5869 182.35C86.4615 181.743 87.0989 180.085 87.9642 178.675C88.603 177.634 89.5502 177.698 90.1821 177.676C90.4882 177.666 91.0502 177.847 91.7154 178.148C92.1371 178.338 92.1761 178.732 92.2158 178.902C92.2547 179.068 92.6116 178.538 92.9651 178.286C93.6318 177.809 94.523 178.277 95.2671 178.376C95.4616 178.402 95.6833 178.506 95.8559 178.673C96.0285 178.839 96.1416 179.086 96.1328 179.391C96.124 179.697 95.9898 180.054 95.8515 180.422" stroke="#007C37" stroke-width="2" stroke-linecap="round"/>
<path d="M82.2832 169.53C83.0329 169.811 84.5205 170.457 84.9166 170.783C85.4626 171.231 85.6974 172.265 85.7317 172.808C85.8033 173.365 85.6193 174.086 85.3176 174.832C85.1885 175.119 85.108 175.22 84.8244 175.513" stroke="#007C37" stroke-width="2" stroke-linecap="round"/>
<path d="M112.88 119.002L157.751 185.969C157.751 185.969 146.396 194.428 129.537 197.213C112.677 199.998 97.471 196.994 97.471 196.994L112.88 119.002Z" fill="#FFDF8D"/>
<path fill-rule="evenodd" clip-rule="evenodd" d="M117.333 136.861C115.48 134.488 112.922 132.991 110.187 132.436L105.566 156.217C108.863 156.837 112.398 156.091 115.248 153.867C120.519 149.753 121.452 142.14 117.333 136.861Z" fill="#F44336"/>
<circle cx="3" cy="3" r="3" transform="matrix(-0.981037 -0.19382 -0.19382 0.981037 142.902 168.255)" fill="#F44336"/>
<circle cx="4.5" cy="4.5" r="4.5" transform="matrix(-0.981037 -0.19382 -0.19382 0.981037 141.352 176.103)" fill="#F44336"/>
<circle cx="6.5" cy="6.5" r="6.5" transform="matrix(-0.981037 -0.19382 -0.19382 0.981037 120.786 187.33)" fill="#F44336"/>
<path d="M106.472 191.297L104.64 192.441C103.617 193.08 102.288 192.915 101.452 192.046L101.318 191.907C100.036 190.575 97.7944 191.101 97.2402 192.866C96.6707 194.679 96.754 196.673 98.079 198.036C101.265 201.312 109.712 206.397 130.025 202.361C149.405 198.51 155.828 191.506 157.956 187.197C159.064 184.952 158.048 182.483 156.316 180.674L156.159 180.51C155.724 180.056 155.117 179.806 154.488 179.823C153.538 179.848 152.708 180.471 152.419 181.377L150.43 187.616C149.818 189.534 147.528 190.317 145.87 189.176L141.892 186.436C140.373 185.39 138.278 185.95 137.483 187.615L134.777 193.288C133.996 194.926 131.951 195.5 130.431 194.51L127.58 192.652C126.346 191.848 124.71 192.059 123.72 193.15L122.605 194.38C121.877 195.183 120.625 195.211 119.861 194.442C118.879 193.452 117.199 193.83 116.735 195.146L116.424 196.028C115.612 198.331 112.311 198.197 111.689 195.836L110.962 193.077C110.447 191.123 108.187 190.226 106.472 191.297Z" fill="#FFC261"/>
<path d="M111.783 188.995C112.127 188.814 112.731 188.159 113.114 187.592C113.46 187.078 113.502 185.301 113.238 183.668C113.043 182.462 112.142 182.161 111.566 181.901C111.287 181.775 110.698 181.729 109.969 181.754C109.506 181.77 109.32 182.119 109.219 182.261C109.12 182.401 108.991 181.775 108.76 181.407C108.325 180.713 107.323 180.806 106.597 180.615C106.407 180.565 106.163 180.577 105.94 180.665C105.716 180.754 105.518 180.939 105.41 181.225C105.302 181.51 105.29 181.892 105.278 182.285" stroke="#007C37" stroke-width="2" stroke-linecap="round"/>
<path d="M121.97 177.37C121.169 177.346 119.548 177.377 119.058 177.528C118.382 177.735 117.772 178.602 117.534 179.091C117.256 179.579 117.152 180.315 117.147 181.12C117.157 181.435 117.193 181.559 117.344 181.938" stroke="#007C37" stroke-width="2" stroke-linecap="round"/>
<path d="M135.836 163.578C135.892 163.59 136.034 163.618 136.287 163.609C137.043 163.583 137.69 162.585 138.033 161.835C138.101 161.688 138.102 161.567 138.107 161.463C138.152 160.662 136.748 159.726 135.875 159.346C135.046 158.984 134.25 159.318 133.705 159.508C133.605 159.543 133.512 159.589 133.462 159.536C133.067 159.114 133.546 158.206 132.946 157.287C131.968 155.791 130.731 155.66 129.803 155.476C128.991 155.314 128.375 155.873 127.939 156.263C127.412 156.735 127.264 157.876 127.258 158.427C127.252 158.996 127.774 159.492 127.941 159.779C128.159 160.154 126.918 160.242 126.11 161.325C125.366 162.324 125.575 163.418 125.665 163.792C125.774 164.247 126.25 164.649 126.838 164.974C127.144 165.142 127.557 165.087 127.939 165.03C128.718 164.912 129.24 164.234 129.292 164.198C129.762 163.876 129.459 165.518 129.98 166.334C130.653 167.389 131.883 167.661 132.371 167.744C133.007 167.851 133.406 167.312 133.737 166.917C133.942 166.557 134.095 166.231 134.189 165.984C134.232 165.843 134.265 165.674 134.3 165.499" stroke="#007C37" stroke-width="2" stroke-linecap="round"/>
<path d="M96.999 158.147C96.999 158.147 97.2775 163.077 104.924 164.536C112.57 165.995 114.644 161.514 114.644 161.514" stroke="black" stroke-width="2" stroke-linecap="round"/>
<path d="M114.534 151.947L111.84 153.752C111.381 154.06 111.259 154.681 111.566 155.14L113.371 157.833" stroke="black" stroke-width="2" stroke-linecap="round"/>
<path d="M100.799 149.233L102.604 151.927C102.912 152.386 102.789 153.007 102.33 153.315L99.6362 155.12" stroke="black" stroke-width="2" stroke-linecap="round"/>
<path d="M117.015 113.694L161.886 180.661C161.886 180.661 174.028 173.376 183.015 158.843C192.003 144.309 195.007 129.103 195.007 129.103L117.015 113.694Z" fill="#FFDF8D"/>
<path fill-rule="evenodd" clip-rule="evenodd" d="M131.839 124.604C130.349 121.988 129.937 119.053 130.464 116.313L154.216 121.082C153.535 124.367 151.501 127.353 148.36 129.144C142.551 132.454 135.154 130.422 131.839 124.604Z" fill="#F44336"/>
<circle cx="154.675" cy="157.83" r="3" transform="rotate(-78.8242 154.675 157.83)" fill="#F44336"/>
<circle cx="164.285" cy="158.2" r="4.5" transform="rotate(-78.8242 164.285 158.2)" fill="#F44336"/>
<circle cx="184.84" cy="141.874" r="6.5" transform="rotate(-78.8242 184.84 141.874)" fill="#F44336"/>
<path d="M186.315 135.261L188.07 134.001C189.049 133.299 189.403 132.006 188.917 130.903L188.839 130.726C188.095 129.034 189.434 127.161 191.277 127.319C193.17 127.482 194.983 128.318 195.739 130.061C197.558 134.253 199.049 144 187.591 161.252C176.659 177.711 167.739 180.988 162.945 181.317C160.447 181.489 158.549 179.61 157.535 177.321L157.443 177.113C157.189 176.538 157.189 175.881 157.443 175.306C157.828 174.437 158.72 173.906 159.667 173.983L166.194 174.516C168.201 174.68 169.796 172.86 169.37 170.892L168.35 166.172C167.96 164.368 169.275 162.644 171.117 162.542L177.393 162.196C179.204 162.097 180.513 160.424 180.175 158.642L179.541 155.299C179.267 153.851 180.084 152.418 181.47 151.918L183.031 151.355C184.05 150.987 184.553 149.839 184.132 148.84C183.59 147.555 184.578 146.145 185.972 146.216L186.906 146.264C189.345 146.389 190.476 143.285 188.529 141.812L186.254 140.091C184.642 138.871 184.673 136.44 186.315 135.261Z" fill="#FFC261"/>
<path d="M142.042 125.683C141.721 126.904 141.901 129.501 141.987 129.859C141.784 130.126 141.422 130.528 140.991 131.133C140.514 132.004 140.016 132.507 139.923 133.212C139.781 134.297 139.528 135.981 140.192 136.291C141.116 136.723 142.864 136.581 143.868 136.07C144.475 135.76 145.078 135.476 145.556 134.982C146.053 134.468 146.394 133.247 146.934 133.512C147.448 133.765 148.639 134.096 149.687 133.825C150.362 133.651 151.979 132.816 152.412 131.712C152.526 131.422 152.854 130.677 152.515 129.8C152.097 128.722 151.531 127.936 150.83 127.365C150.497 127.093 149.895 126.827 149.197 126.972C148.255 127.168 147.573 128.282 147.244 127.877C147.134 127.74 147.163 127.368 147.073 126.952C146.921 126.255 146.863 125.46 146.168 125.105C145.586 124.808 143.931 124.295 142.966 124.88C142.675 125.057 142.163 125.223 142.042 125.683Z" stroke="#007C37" stroke-width="2" stroke-linecap="round"/>
<path d="M182.166 139.298C181.868 139.547 181.032 139.857 180.362 139.995C179.755 140.12 178.096 139.483 176.686 138.618C175.645 137.979 175.709 137.032 175.688 136.4C175.677 136.094 175.858 135.532 176.159 134.866C176.35 134.445 176.743 134.406 176.913 134.366C177.08 134.327 176.55 133.97 176.297 133.617C175.821 132.95 176.289 132.059 176.387 131.315C176.413 131.12 176.517 130.898 176.684 130.726C176.851 130.553 177.097 130.44 177.403 130.449C177.708 130.458 178.066 130.592 178.434 130.73" stroke="#007C37" stroke-width="2" stroke-linecap="round"/>
<path d="M167.541 144.298C167.823 143.548 168.469 142.061 168.794 141.665C169.243 141.119 170.276 140.884 170.819 140.85C171.376 140.778 172.097 140.962 172.843 141.264C173.13 141.393 173.231 141.473 173.524 141.757" stroke="#007C37" stroke-width="2" stroke-linecap="round"/>
<path d="M150.358 145.243C150.358 145.243 154.971 147.006 159.43 140.626C163.89 134.246 160.65 130.52 160.65 130.52" stroke="black" stroke-width="2" stroke-linecap="round"/>
<ellipse cx="148.548" cy="139.522" rx="1.79634" ry="2.69451" transform="rotate(-54.6498 148.548 139.522)" fill="black"/>
<ellipse cx="154.784" cy="130.731" rx="1.79634" ry="2.69451" transform="rotate(-54.6498 154.784 130.731)" fill="black"/>
<path d="M110.079 112.312L65.2078 45.3456C65.2078 45.3456 53.0657 52.6303 44.0783 67.164C35.091 81.6977 32.0868 96.9038 32.0868 96.9038L110.079 112.312Z" fill="#FFDF8D"/>
<path fill-rule="evenodd" clip-rule="evenodd" d="M95.2544 101.403C96.7451 104.018 97.1567 106.954 96.6301 109.694L72.8778 104.925C73.5589 101.64 75.5927 98.6535 78.7341 96.8633C84.543 93.553 91.9394 95.5853 95.2544 101.403Z" fill="#F44336"/>
<circle cx="72.4188" cy="68.1764" r="3" transform="rotate(101.176 72.4188 68.1764)" fill="#F44336"/>
<circle cx="62.8088" cy="67.8066" r="4.5" transform="rotate(101.176 62.8088 67.8066)" fill="#F44336"/>
<circle cx="42.2541" cy="84.1325" r="6.5" transform="rotate(101.176 42.2541 84.1325)" fill="#F44336"/>
<path d="M40.7791 90.7457L39.0236 92.0055C38.0444 92.7082 37.6911 94.0006 38.1765 95.1038L38.2543 95.2806C38.9992 96.9733 37.6596 98.8458 35.817 98.6874C33.9234 98.5246 32.1105 97.6891 31.3543 95.9455C29.536 91.7534 28.0452 82.0071 39.5031 64.7549C50.4345 48.2955 59.355 45.0187 64.1489 44.6894C66.6468 44.5179 68.5448 46.3966 69.5584 48.686L69.6503 48.8937C69.9051 49.4693 69.9052 50.1256 69.6505 50.7012C69.2661 51.5702 68.3739 52.1006 67.4268 52.0233L60.8996 51.4906C58.893 51.3269 57.2978 53.147 57.7233 55.1148L58.7441 59.8352C59.1341 61.6386 57.8191 63.3632 55.9768 63.4647L49.701 63.8103C47.8896 63.9101 46.5805 65.5824 46.9186 67.3648L47.5526 70.7081C47.8271 72.1558 47.0097 73.5885 45.6238 74.0888L44.0628 74.6523C43.0434 75.0203 42.541 76.1678 42.962 77.1665C43.5041 78.452 42.5154 79.862 41.1221 79.7905L40.1875 79.7425C37.749 79.6174 36.6178 82.7215 38.5649 84.1947L40.84 85.916C42.4518 87.1354 42.4211 89.5673 40.7791 90.7457Z" fill="#FFC261"/>
<path d="M44.928 86.7092C45.2256 86.4595 46.0614 86.1503 46.7319 86.0119C47.3391 85.8865 48.9974 86.5239 50.4075 87.3892C51.4486 88.028 51.3848 88.9752 51.4061 89.6071C51.4165 89.9132 51.2353 90.4753 50.9345 91.1405C50.7438 91.5621 50.3507 91.6012 50.1806 91.6409C50.014 91.6797 50.5439 92.0367 50.7964 92.3901C51.2729 93.0568 50.8051 93.9481 50.7064 94.6922C50.6806 94.8867 50.5763 95.1084 50.4096 95.281C50.2428 95.4536 49.9965 95.5667 49.6909 95.5578C49.3854 95.549 49.0281 95.4148 48.6599 95.2766" stroke="#007C37" stroke-width="2" stroke-linecap="round"/>
<path d="M59.5527 81.7087C59.2712 82.4584 58.6251 83.9461 58.2997 84.3422C57.8512 84.8881 56.8174 85.123 56.2745 85.1572C55.7176 85.2289 54.9966 85.0448 54.2504 84.7432C53.9634 84.614 53.8626 84.5335 53.5695 84.25" stroke="#007C37" stroke-width="2" stroke-linecap="round"/>
<path d="M110.158 112.276L65.287 45.3089C65.287 45.3089 76.6419 36.8493 93.5015 34.0642C110.361 31.2791 125.567 34.2833 125.567 34.2833L110.158 112.276Z" fill="#FFDF8D"/>
<path fill-rule="evenodd" clip-rule="evenodd" d="M105.705 94.4162C107.558 96.7897 110.117 98.2867 112.851 98.8417L117.472 75.0602C114.175 74.4409 110.64 75.1863 107.79 77.4109C102.519 81.5245 101.586 89.138 105.705 94.4162Z" fill="#F44336"/>
<circle cx="4.5" cy="4.5" r="4.5" transform="matrix(0.981037 0.19382 0.19382 -0.981037 81.6865 55.1743)" fill="#F44336"/>
<circle cx="6.5" cy="6.5" r="6.5" transform="matrix(0.981037 0.19382 0.19382 -0.981037 102.252 43.9475)" fill="#F44336"/>
<path d="M116.566 39.9809L118.399 38.8364C119.421 38.198 120.75 38.3627 121.586 39.2312L121.72 39.3704C123.002 40.703 125.244 40.1761 125.798 38.4118C126.367 36.5985 126.284 34.6041 124.959 33.2416C121.773 29.9657 113.326 24.8805 93.013 28.9167C73.6331 32.7675 67.2101 39.7716 65.0826 44.0802C63.974 46.3252 64.9897 48.795 66.7217 50.6031L66.8788 50.7671C67.3142 51.2217 67.9212 51.4713 68.5505 51.4547C69.5003 51.4296 70.3302 50.8061 70.6189 49.9008L72.6084 43.6614C73.2201 41.7433 75.5101 40.9602 77.1682 42.102L81.1458 44.8412C82.6654 45.8877 84.7605 45.3274 85.5549 43.6621L88.2612 37.9893C89.0424 36.3519 91.0868 35.7771 92.6068 36.7676L95.4578 38.6254C96.6923 39.4299 98.3282 39.2187 99.318 38.1271L100.433 36.8977C101.161 36.0949 102.413 36.0666 103.177 36.8358C104.159 37.826 105.839 37.4478 106.303 36.132L106.614 35.2493C107.426 32.9465 110.727 33.0807 111.349 35.4418L112.076 38.2005C112.591 40.1549 114.852 41.0514 116.566 39.9809Z" fill="#FFC261"/>
<path d="M111.255 42.2829C110.911 42.4632 110.308 43.1186 109.925 43.6861C109.578 44.2001 109.537 45.9761 109.801 47.6093C109.995 48.8151 110.896 49.1163 111.472 49.3764C111.751 49.5024 112.34 49.5485 113.07 49.5233C113.532 49.5073 113.718 49.1586 113.819 49.0163C113.918 48.877 114.047 49.5029 114.278 49.8709C114.713 50.565 115.715 50.4714 116.441 50.663C116.631 50.7131 116.876 50.701 117.099 50.6124C117.322 50.5238 117.52 50.339 117.628 50.0531C117.736 49.7671 117.748 49.3856 117.76 48.9926" stroke="#007C37" stroke-width="2" stroke-linecap="round"/>
<path d="M101.068 53.9072C101.869 53.9319 103.49 53.9002 103.98 53.7498C104.656 53.5426 105.266 52.6758 105.504 52.1867C105.782 51.6989 105.886 50.9621 105.891 50.1572C105.881 49.8427 105.845 49.7189 105.694 49.3399" stroke="#007C37" stroke-width="2" stroke-linecap="round"/>
<path d="M87.2023 67.6992C87.1458 67.6881 87.0037 67.66 86.7506 67.6687C85.995 67.6948 85.3476 68.6924 85.0046 69.4423C84.9372 69.5898 84.9364 69.7109 84.9307 69.8143C84.8861 70.6155 86.29 71.5514 87.1629 71.932C87.9922 72.2937 88.7879 71.9595 89.3331 71.7691C89.4327 71.7344 89.5265 71.689 89.5761 71.7419C89.9707 72.1632 89.4917 73.0719 90.0923 73.9909C91.0698 75.4868 92.3076 75.6177 93.2348 75.8018C94.0474 75.9631 94.6629 75.4051 95.0986 75.0147C95.6257 74.5425 95.7741 73.402 95.7798 72.8506C95.7857 72.282 95.2642 71.7851 95.0974 71.499C94.8787 71.1238 96.1205 71.036 96.9281 69.9522C97.6724 68.9533 97.4634 67.8598 97.3736 67.4857C97.2643 67.0303 96.7884 66.6284 96.2003 66.304C95.8942 66.1352 95.4807 66.1903 95.0992 66.248C94.32 66.3657 93.7977 67.0439 93.7463 67.0791C93.2757 67.4012 93.579 65.7595 93.0586 64.944C92.3849 63.8884 91.1551 63.6167 90.6669 63.5341C90.0308 63.4264 89.6323 63.9654 89.3012 64.3604C89.0961 64.7208 88.9428 65.0464 88.8494 65.294C88.8065 65.4341 88.773 65.6036 88.7385 65.7783" stroke="#007C37" stroke-width="2" stroke-linecap="round"/>
<path d="M110.076 112.324L43.1092 157.195C43.1092 157.195 34.6496 145.84 31.8645 128.98C29.0794 112.121 32.0836 96.9149 32.0836 96.9149L110.076 112.324Z" fill="#FFDF8D"/>
<path fill-rule="evenodd" clip-rule="evenodd" d="M92.2175 116.776C94.5909 114.924 96.088 112.365 96.643 109.631L72.8615 105.009C72.2422 108.307 72.9876 111.842 75.2122 114.692C79.3257 119.963 86.9393 120.896 92.2175 116.776Z" fill="#F44336"/>
<circle cx="3" cy="3" r="3" transform="matrix(0.19382 -0.981037 -0.981037 -0.19382 60.8232 142.347)" fill="#F44336"/>
<circle cx="4.5" cy="4.5" r="4.5" transform="matrix(0.19382 -0.981037 -0.981037 -0.19382 52.9756 140.796)" fill="#F44336"/>
<circle cx="6.5" cy="6.5" r="6.5" transform="matrix(0.19382 -0.981037 -0.981037 -0.19382 41.748 120.23)" fill="#F44336"/>
<path d="M37.7816 105.916L36.6372 104.083C35.9988 103.061 36.1635 101.731 37.0319 100.896L37.1712 100.762C38.5038 99.4793 37.9769 97.238 36.2125 96.6838C34.3993 96.1143 32.4049 96.1976 31.0424 97.5226C27.7665 100.708 22.6813 109.155 26.7175 129.469C30.5683 148.849 37.5724 155.272 41.881 157.399C44.126 158.508 46.5958 157.492 48.4039 155.76L48.5679 155.603C49.0225 155.167 49.2721 154.56 49.2555 153.931C49.2304 152.981 48.6069 152.151 47.7016 151.863L41.4622 149.873C39.5441 149.262 38.7609 146.972 39.9028 145.314L42.642 141.336C43.6885 139.816 43.1282 137.721 41.4629 136.927L35.7901 134.22C34.1527 133.439 33.5779 131.395 34.5684 129.875L36.4262 127.024C37.2306 125.789 37.0195 124.153 35.9279 123.164L34.6985 122.049C33.8957 121.321 33.8674 120.069 34.6366 119.305C35.6267 118.322 35.2486 116.642 33.9327 116.178L33.0501 115.867C30.7473 115.056 30.8815 111.755 33.2426 111.133L36.0013 110.406C37.9557 109.891 38.8522 107.63 37.7816 105.916Z" fill="#FFC261"/>
<path d="M82.3705 113.893C82.2035 115.145 81.0489 117.479 80.8334 117.777C80.9195 118.102 81.1017 118.61 81.27 119.334C81.38 120.321 81.6496 120.976 81.467 121.663C81.1859 122.721 80.7794 124.374 80.0471 124.408C79.0285 124.456 77.4664 123.661 76.7317 122.806C76.2877 122.289 75.8384 121.797 75.5844 121.158C75.3204 120.494 75.469 119.235 74.869 119.275C74.2975 119.313 73.0694 119.166 72.2038 118.517C71.6456 118.099 70.4678 116.712 70.4871 115.526C70.4921 115.214 70.472 114.401 71.1192 113.719C71.9155 112.88 72.7378 112.369 73.6029 112.107C74.0143 111.983 74.6724 111.965 75.2631 112.366C76.0593 112.905 76.2664 114.195 76.7249 113.944C76.8789 113.86 76.9931 113.505 77.235 113.154C77.6404 112.567 77.9962 111.854 78.7747 111.79C79.4255 111.737 81.1517 111.892 81.821 112.8C82.0235 113.074 82.4335 113.422 82.3705 113.893Z" stroke="#007C37" stroke-width="2" stroke-linecap="round"/>
<path d="M51.708 121.413C51.7327 120.613 51.7009 118.991 51.5506 118.501C51.3433 117.826 50.4766 117.215 49.9875 116.977C49.4997 116.699 48.7629 116.595 47.958 116.59C47.6435 116.601 47.5196 116.637 47.1407 116.788" stroke="#007C37" stroke-width="2" stroke-linecap="round"/>
<path d="M65.5 135.28C65.4889 135.337 65.4608 135.479 65.4695 135.732C65.4955 136.488 66.4931 137.135 67.2431 137.478C67.3905 137.546 67.5116 137.546 67.6151 137.552C68.4163 137.597 69.3522 136.193 69.7328 135.32C70.0945 134.49 69.7603 133.695 69.5699 133.15C69.5351 133.05 69.4898 132.956 69.5427 132.907C69.964 132.512 70.8727 132.991 71.7917 132.39C73.2876 131.413 73.4185 130.175 73.6026 129.248C73.7639 128.435 73.2059 127.82 72.8155 127.384C72.3432 126.857 71.2028 126.709 70.6514 126.703C70.0828 126.697 69.5859 127.218 69.2998 127.385C68.9246 127.604 68.8368 126.362 67.7529 125.555C66.754 124.81 65.6605 125.019 65.2864 125.109C64.8311 125.218 64.4292 125.694 64.1048 126.282C63.936 126.588 63.9911 127.002 64.0488 127.383C64.1665 128.163 64.8447 128.685 64.8799 128.736C65.202 129.207 63.5603 128.904 62.7447 129.424C61.6891 130.098 61.4175 131.328 61.3349 131.816C61.2272 132.452 61.7662 132.85 62.1612 133.182C62.5215 133.387 62.8472 133.54 63.0947 133.633C63.2349 133.676 63.4044 133.71 63.5791 133.744" stroke="#007C37" stroke-width="2" stroke-linecap="round"/>
<path d="M90.4893 68.7085C90.4893 68.7085 94.9942 75.1617 86.8471 84.519C78.6999 93.8763 71.6882 90.3022 71.6882 90.3022" stroke="black" stroke-width="2" stroke-linecap="round"/>
<path d="M91.4365 92.9832L85.2757 100.86" stroke="black" stroke-width="2" stroke-linecap="round"/>
<path d="M103.562 78.05L97.4007 85.9269" stroke="black" stroke-width="2" stroke-linecap="round"/>
<path d="M118.181 107.797L185.148 62.9254C185.148 62.9254 193.607 74.2804 196.392 91.1399C199.177 107.999 196.173 123.205 196.173 123.205L118.181 107.797Z" fill="#FFDF8D"/>
<path fill-rule="evenodd" clip-rule="evenodd" d="M136.039 103.344C133.666 105.196 132.169 107.755 131.614 110.489L155.395 115.111C156.015 111.814 155.269 108.279 153.045 105.428C148.931 100.158 141.318 99.2244 136.039 103.344Z" fill="#F44336"/>
<circle cx="3" cy="3" r="3" transform="matrix(-0.19382 0.981037 0.981037 0.19382 167.434 77.7737)" fill="#F44336"/>
<circle cx="4.5" cy="4.5" r="4.5" transform="matrix(-0.19382 0.981037 0.981037 0.19382 175.281 79.3242)" fill="#F44336"/>
<circle cx="6.5" cy="6.5" r="6.5" transform="matrix(-0.19382 0.981037 0.981037 0.19382 186.509 99.8904)" fill="#F44336"/>
<path d="M190.475 114.204L191.62 116.037C192.258 117.059 192.093 118.389 191.225 119.225L191.086 119.359C189.753 120.641 190.28 122.882 192.044 123.437C193.858 124.006 195.852 123.923 197.214 122.598C200.49 119.412 205.576 110.965 201.539 90.6517C197.689 71.2718 190.684 64.8488 186.376 62.7212C184.131 61.6127 181.661 62.6284 179.853 64.3604L179.689 64.5175C179.234 64.9529 178.985 65.5599 179.001 66.1891C179.026 67.139 179.65 67.9689 180.555 68.2576L186.795 70.2471C188.713 70.8587 189.496 73.1487 188.354 74.8069L185.615 78.7844C184.568 80.304 185.129 82.3992 186.794 83.1936L192.467 85.8999C194.104 86.681 194.679 88.7255 193.688 90.2454L191.831 93.0964C191.026 94.3309 191.237 95.9669 192.329 96.9567L193.558 98.0715C194.361 98.7995 194.389 100.052 193.62 100.815C192.63 101.798 193.008 103.478 194.324 103.942L195.207 104.253C197.51 105.065 197.375 108.366 195.014 108.988L192.256 109.714C190.301 110.229 189.405 112.49 190.475 114.204Z" fill="#FFC261"/>
<path d="M145.886 106.227C146.053 104.975 147.208 102.641 147.423 102.343C147.337 102.019 147.155 101.51 146.987 100.787C146.877 99.7991 146.607 99.1445 146.79 98.457C147.071 97.3994 147.477 95.7466 148.21 95.712C149.228 95.664 150.79 96.4596 151.525 97.3148C151.969 97.8317 152.418 98.3238 152.672 98.9625C152.936 99.6263 152.788 100.886 153.388 100.845C153.959 100.807 155.187 100.954 156.053 101.603C156.611 102.021 157.789 103.408 157.77 104.594C157.765 104.906 157.785 105.719 157.138 106.401C156.341 107.24 155.519 107.752 154.654 108.013C154.243 108.138 153.584 108.155 152.994 107.755C152.197 107.215 151.99 105.926 151.532 106.176C151.378 106.26 151.264 106.616 151.022 106.966C150.616 107.553 150.261 108.266 149.482 108.33C148.831 108.384 147.105 108.228 146.436 107.321C146.233 107.046 145.823 106.698 145.886 106.227Z" stroke="#007C37" stroke-width="2" stroke-linecap="round"/>
<path d="M188.173 108.893C187.993 108.549 187.337 107.945 186.77 107.562C186.256 107.216 184.48 107.174 182.846 107.438C181.641 107.633 181.339 108.534 181.079 109.11C180.953 109.389 180.907 109.978 180.932 110.707C180.948 111.17 181.297 111.356 181.439 111.457C181.579 111.556 180.953 111.685 180.585 111.916C179.891 112.351 179.984 113.353 179.793 114.079C179.743 114.269 179.755 114.513 179.843 114.737C179.932 114.96 180.117 115.158 180.403 115.266C180.689 115.374 181.07 115.386 181.463 115.398" stroke="#007C37" stroke-width="2" stroke-linecap="round"/>
<path d="M176.549 98.707C176.524 99.5075 176.556 101.129 176.706 101.619C176.913 102.295 177.78 102.905 178.269 103.143C178.757 103.421 179.494 103.525 180.299 103.53C180.613 103.52 180.737 103.483 181.116 103.333" stroke="#007C37" stroke-width="2" stroke-linecap="round"/>
<path d="M118.183 107.745L185.15 62.8736C185.15 62.8736 177.866 50.7314 163.332 41.7441C148.798 32.7568 133.592 29.7525 133.592 29.7525L118.183 107.745Z" fill="#FFDF8D"/>
<path fill-rule="evenodd" clip-rule="evenodd" d="M129.093 92.9207C126.477 94.4113 123.541 94.8229 120.801 94.2963L125.571 70.544C128.856 71.2252 131.842 73.259 133.632 76.4004C136.942 82.2092 134.91 89.6056 129.093 92.9207Z" fill="#F44336"/>
<circle cx="162.689" cy="60.4749" r="4.5" transform="rotate(-168.824 162.689 60.4749)" fill="#F44336"/>
<circle cx="146.364" cy="39.9208" r="6.5" transform="rotate(-168.824 146.364 39.9208)" fill="#F44336"/>
<path d="M139.75 38.4451L138.49 36.6896C137.787 35.7104 136.495 35.3571 135.392 35.8425L135.215 35.9204C133.522 36.6652 131.65 35.3256 131.808 33.483C131.971 31.5894 132.806 29.7766 134.55 29.0203C138.742 27.202 148.489 25.7112 165.741 37.1691C182.2 48.1005 185.477 57.021 185.806 61.8149C185.978 64.3128 184.099 66.2108 181.81 67.2244L181.602 67.3164C181.026 67.5712 180.37 67.5712 179.794 67.3166C178.925 66.9321 178.395 66.0399 178.472 65.0928L179.005 58.5656C179.169 56.559 177.349 54.9638 175.381 55.3894L170.66 56.4101C168.857 56.8001 167.132 55.4851 167.031 53.6429L166.685 47.3671C166.586 45.5556 164.913 44.2465 163.131 44.5846L159.788 45.2186C158.34 45.4932 156.907 44.6757 156.407 43.2898L155.843 41.7288C155.475 40.7094 154.328 40.207 153.329 40.6281C152.044 41.1701 150.634 40.1814 150.705 38.7881L150.753 37.8535C150.878 35.415 147.774 34.2838 146.301 36.2309L144.58 38.506C143.36 40.1178 140.928 40.0871 139.75 38.4451Z" fill="#FFC261"/>
<path d="M130.171 82.7175C131.392 83.039 133.99 82.8587 134.348 82.7728C134.615 82.9758 135.016 83.3378 135.622 83.7686C136.493 84.2459 136.996 84.7441 137.701 84.8366C138.786 84.9789 140.469 85.2315 140.78 84.5674C141.212 83.6436 141.07 81.8962 140.558 80.8915C140.249 80.2844 139.965 79.6816 139.471 79.2038C138.957 78.7072 137.736 78.3658 138.001 77.8261C138.254 77.3121 138.585 76.1203 138.314 75.073C138.14 74.3977 137.305 72.7809 136.2 72.3477C135.91 72.2339 135.166 71.906 134.289 72.2452C133.21 72.6627 132.424 73.2286 131.853 73.9293C131.582 74.2624 131.316 74.8646 131.461 75.563C131.657 76.5046 132.771 77.1865 132.365 77.5154C132.229 77.6258 131.857 77.5963 131.441 77.6868C130.744 77.8385 129.949 77.8963 129.594 78.592C129.297 79.1736 128.784 80.8292 129.369 81.7933C129.546 82.085 129.712 82.5965 130.171 82.7175Z" stroke="#007C37" stroke-width="2" stroke-linecap="round"/>
<path d="M148.787 57.2185C148.037 56.937 146.55 56.2909 146.154 55.9655C145.608 55.5169 145.373 54.4832 145.339 53.9403C145.267 53.3834 145.451 52.6624 145.753 51.9162C145.882 51.6292 145.962 51.5284 146.246 51.2352" stroke="#007C37" stroke-width="2" stroke-linecap="round"/>
<path d="M151.322 72.3594C151.322 72.3594 156.959 70.5444 161.89 78.4718C166.822 86.3991 162.702 90.6533 162.702 90.6533" stroke="black" stroke-width="2" stroke-linecap="round"/>
<ellipse cx="2.15444" cy="3.23167" rx="2.15444" ry="3.23167" transform="matrix(0.534068 0.845441 0.845441 -0.534068 144.904 79)" fill="black"/>
<path d="M152.437 93.3769L153.269 89.374C153.381 88.8333 153.911 88.4861 154.452 88.5985L158.455 89.4305" stroke="black" stroke-width="2" stroke-linecap="round"/>
</svg>
