<svg width="352" height="58" viewBox="0 0 352 58" fill="none" xmlns="http://www.w3.org/2000/svg">
<rect x="0.75" y="0.75" width="350.5" height="56.5" rx="5.25" fill="white" stroke="#D9D9D9" stroke-width="0.5"/>
<path d="M139.934 28.6315H142.5M142.5 28.6315H145.066M142.5 28.6315V26.0657M142.5 28.6315V31.1973" stroke="#F44336" stroke-linecap="round" stroke-linejoin="round"/>
<path d="M142.5 22.5C145.814 22.5 148.5 25.1863 148.5 28.5C148.5 31.8137 145.814 34.5 142.5 34.5C139.186 34.5 136.5 31.8137 136.5 28.5C136.5 25.1863 139.186 22.5 142.5 22.5Z" stroke="#F44336"/>
<path d="M155.512 23.744H157.137V26.656C157.137 26.9073 157.15 27.1327 157.176 27.332C157.21 27.5227 157.258 27.7047 157.319 27.878C157.388 28.0427 157.47 28.2073 157.566 28.372C157.661 28.528 157.778 28.6883 157.917 28.853C158.159 29.1563 158.424 29.4683 158.71 29.789C159.004 30.101 159.303 30.4087 159.607 30.712L158.528 31.713C157.956 31.1237 157.475 30.6037 157.085 30.153C156.703 29.711 156.478 29.4077 156.409 29.243H156.396C156.361 29.3383 156.279 29.477 156.149 29.659C156.027 29.8323 155.884 30.0143 155.72 30.205C155.633 30.309 155.529 30.4303 155.408 30.569C155.286 30.699 155.152 30.842 155.005 30.998C154.866 31.154 154.719 31.3143 154.563 31.479C154.415 31.635 154.268 31.7823 154.121 31.921L153.016 30.855C153.293 30.5777 153.583 30.2743 153.887 29.945C154.19 29.6157 154.467 29.295 154.719 28.983C154.875 28.7923 155 28.6103 155.096 28.437C155.2 28.2637 155.282 28.0903 155.343 27.917C155.403 27.7437 155.447 27.5573 155.473 27.358C155.499 27.15 155.512 26.916 155.512 26.656V23.744ZM161.258 27.046H162.324V22.782H163.884V34.872H162.324V28.463H161.258V34.287H159.698V23.029H161.258V27.046ZM177.369 25.915H178.955V27.345H177.369V30.4H175.731V22.782H177.369V25.915ZM172.208 23.952H174.821V25.33H167.905V23.952H170.57V22.652H172.208V23.952ZM171.389 30.244C170.93 30.244 170.522 30.192 170.167 30.088C169.812 29.9753 169.513 29.828 169.27 29.646C169.027 29.4553 168.841 29.2387 168.711 28.996C168.581 28.7447 168.516 28.476 168.516 28.19V27.774C168.516 27.488 168.581 27.2237 168.711 26.981C168.841 26.7297 169.027 26.513 169.27 26.331C169.513 26.1403 169.812 25.993 170.167 25.889C170.522 25.7763 170.93 25.72 171.389 25.72C171.84 25.72 172.243 25.7763 172.598 25.889C172.962 25.993 173.265 26.1403 173.508 26.331C173.751 26.513 173.937 26.7297 174.067 26.981C174.197 27.2237 174.262 27.488 174.262 27.774V28.19C174.262 28.476 174.197 28.7447 174.067 28.996C173.937 29.2387 173.751 29.4553 173.508 29.646C173.265 29.828 172.962 29.9753 172.598 30.088C172.243 30.192 171.84 30.244 171.389 30.244ZM171.389 27.007C170.947 27.007 170.613 27.098 170.388 27.28C170.171 27.462 170.063 27.6527 170.063 27.852V28.112C170.063 28.3113 170.171 28.502 170.388 28.684C170.613 28.866 170.947 28.957 171.389 28.957C171.831 28.957 172.16 28.866 172.377 28.684C172.602 28.502 172.715 28.3113 172.715 28.112V27.852C172.715 27.6527 172.602 27.462 172.377 27.28C172.16 27.098 171.831 27.007 171.389 27.007ZM173.69 35.249C173.135 35.249 172.628 35.197 172.169 35.093C171.718 34.9977 171.328 34.859 170.999 34.677C170.678 34.495 170.427 34.274 170.245 34.014C170.063 33.7627 169.972 33.4767 169.972 33.156V32.688C169.972 32.3673 170.063 32.0813 170.245 31.83C170.427 31.57 170.678 31.349 170.999 31.167C171.328 30.985 171.718 30.8463 172.169 30.751C172.628 30.647 173.135 30.595 173.69 30.595C174.245 30.595 174.747 30.647 175.198 30.751C175.657 30.8463 176.047 30.985 176.368 31.167C176.697 31.349 176.953 31.57 177.135 31.83C177.317 32.0813 177.408 32.3673 177.408 32.688V33.156C177.408 33.4767 177.317 33.7627 177.135 34.014C176.953 34.274 176.697 34.495 176.368 34.677C176.047 34.859 175.657 34.9977 175.198 35.093C174.747 35.197 174.245 35.249 173.69 35.249ZM173.69 31.934C173.378 31.934 173.092 31.96 172.832 32.012C172.581 32.0553 172.36 32.116 172.169 32.194C171.978 32.272 171.831 32.3673 171.727 32.48C171.623 32.584 171.571 32.6967 171.571 32.818V33.026C171.571 33.1473 171.623 33.26 171.727 33.364C171.831 33.4767 171.978 33.572 172.169 33.65C172.36 33.728 172.581 33.7887 172.832 33.832C173.092 33.884 173.378 33.91 173.69 33.91C174.002 33.91 174.284 33.884 174.535 33.832C174.795 33.7887 175.02 33.728 175.211 33.65C175.402 33.572 175.549 33.4767 175.653 33.364C175.757 33.26 175.809 33.1473 175.809 33.026V32.818C175.809 32.6967 175.757 32.584 175.653 32.48C175.549 32.3673 175.402 32.272 175.211 32.194C175.02 32.116 174.795 32.0553 174.535 32.012C174.284 31.96 174.002 31.934 173.69 31.934ZM185.317 27.618V28.697H190.036V30.049H178.96V28.697H183.679V27.618H180.52V23.159H188.476V27.618H185.317ZM180.403 30.933H188.541V35.015H186.903V32.285H180.403V30.933ZM182.145 26.292H186.851V24.485H182.145V26.292ZM194.733 24.017H198.1V22.587H199.764V24.017H203.131V25.408H199.764V25.486C199.764 25.7633 199.834 25.9887 199.972 26.162C200.12 26.3267 200.375 26.487 200.739 26.643C201.181 26.8337 201.658 27.0243 202.169 27.215C202.681 27.397 203.192 27.5703 203.703 27.735L203.131 29.048C202.637 28.8833 202.165 28.7187 201.714 28.554C201.264 28.3807 200.817 28.2073 200.375 28.034C199.985 27.878 199.665 27.7307 199.413 27.592C199.171 27.4533 199.015 27.3233 198.945 27.202H198.932C198.863 27.3233 198.703 27.4577 198.451 27.605C198.2 27.7523 197.879 27.904 197.489 28.06C197.047 28.2333 196.601 28.4067 196.15 28.58C195.7 28.7447 195.227 28.9093 194.733 29.074L194.161 27.735C194.673 27.5703 195.184 27.397 195.695 27.215C196.207 27.0243 196.683 26.8337 197.125 26.643C197.489 26.487 197.741 26.3267 197.879 26.162C198.027 25.9887 198.1 25.7633 198.1 25.486V25.408H194.733V24.017ZM204.47 29.711V31.102H199.764V34.872H198.113V31.102H193.394V29.711H204.47ZM214.173 27.189H215.837V28.619H214.173V34.872H212.522V22.782H214.173V27.189ZM204.852 31.076C205.502 30.686 206.057 30.3393 206.516 30.036C206.975 29.7327 207.357 29.4553 207.66 29.204C207.972 28.944 208.215 28.7013 208.388 28.476C208.561 28.242 208.691 28.008 208.778 27.774C208.873 27.54 208.93 27.293 208.947 27.033C208.973 26.773 208.986 26.4827 208.986 26.162V25.291H205.073V23.874H210.637V26.24C210.637 26.682 210.615 27.0807 210.572 27.436C210.529 27.7827 210.442 28.112 210.312 28.424C210.191 28.7273 210.017 29.022 209.792 29.308C209.575 29.594 209.285 29.893 208.921 30.205C208.557 30.5083 208.111 30.8377 207.582 31.193C207.062 31.5397 206.442 31.934 205.723 32.376L204.852 31.076Z" fill="black"/>
</svg>
