<svg width="148" height="161" viewBox="0 0 148 161" fill="none" xmlns="http://www.w3.org/2000/svg">
<path d="M23.2962 136.496C28.0732 134.965 32.4951 140.432 34.1089 143.356L38.4663 139.368L61.2213 143.356C53.3458 156.63 38.4663 162.313 32.1723 160.746C10.3856 155.322 17.3251 138.411 23.2962 136.496Z" fill="#FFC261"/>
<path d="M110.405 136.496C105.628 134.965 101.206 140.432 99.5925 143.356L95.2351 139.368L72.4801 143.356C80.3556 156.63 95.2351 162.313 101.529 160.746C123.316 155.322 116.376 138.411 110.405 136.496Z" fill="#FFC261"/>
<path d="M57.2072 21.9449L8.40903 111.384C7.29674 113.422 6.91961 115.805 7.97631 117.873C11.5519 124.87 24.4669 140.439 68.5961 140.384C113.45 140.329 126.449 125.333 130.068 118.368C131.183 116.223 130.706 113.751 129.448 111.686L74.5257 21.5318C70.5193 14.9555 60.8954 15.1851 57.2072 21.9449Z" fill="#FFDF8D"/>
<ellipse cx="97.4894" cy="108.684" rx="15.7454" ry="14.9956" transform="rotate(9.40849 97.4894 108.684)" fill="#F44336"/>
<path d="M30.8436 108.072L21.5324 111.582C20.2054 112.082 18.7094 111.585 17.946 110.39L15.1836 106.065C13.9572 104.145 11.1221 104.239 10.0256 106.236L5.73551 114.05C5.73551 114.05 -0.446782 126.83 9.79459 133.781C18.6667 139.802 41.772 148.572 68.5775 148.615C96.7056 148.66 120.111 143.625 128.923 137.603C137.244 131.917 133.813 119.325 132.619 115.733C132.4 115.076 132.086 114.465 131.714 113.88L127.554 107.335C127.101 106.621 126.367 106.132 125.534 105.988L123.912 105.708C122.654 105.49 121.396 106.092 120.777 107.209L112.059 122.925C111.083 124.686 108.684 125.004 107.282 123.559L95.4453 111.351C94.1609 110.026 91.9965 110.164 90.8904 111.641L79.3306 127.074C78.243 128.526 76.1254 128.688 74.8297 127.418L65.8118 118.581C64.7594 117.55 63.1138 117.436 61.9289 118.312L56.6261 122.231C55.2439 123.253 53.2876 122.906 52.34 121.472L51.2445 119.815C50.0246 117.969 47.2944 118.033 46.1632 119.935L41.4195 127.91C39.9088 130.45 36.0233 129.506 35.8465 126.556L34.8964 110.7C34.7755 108.683 32.7348 107.36 30.8436 108.072Z" fill="#FFC261"/>
<circle cx="35.1061" cy="95.3077" r="8.99737" transform="rotate(9.40849 35.1061 95.3077)" fill="#F44336"/>
<circle cx="50.8974" cy="110.084" r="5.99825" transform="rotate(9.40849 50.8974 110.084)" fill="#F44336"/>
<path fill-rule="evenodd" clip-rule="evenodd" d="M91.1006 66.2598C94.885 66.8868 98.5754 66.083 101.618 64.2442L85.4335 37.9605C81.8079 40.2246 79.1366 43.9734 78.3835 48.5181C76.991 56.922 82.6846 64.8652 91.1006 66.2598Z" fill="#F44336"/>
<path d="M77.8121 88.9802C76.9843 90.8656 76.6154 95.0958 76.6629 95.6939C76.268 96.0729 75.583 96.6276 74.7355 97.4929C73.7455 98.7756 72.8152 99.4591 72.4871 100.572C71.9825 102.284 71.1484 104.931 72.1394 105.6C73.518 106.53 76.3687 106.745 78.117 106.176C79.1736 105.832 80.2167 105.527 81.1119 104.852C82.0422 104.151 82.9022 102.271 83.7041 102.835C84.4681 103.372 86.3039 104.208 88.0597 104.038C89.1918 103.928 92.0081 102.993 92.9863 101.325C93.2433 100.886 93.9606 99.7699 93.6366 98.2715C93.2379 96.4279 92.5258 95.0181 91.542 93.9205C91.0743 93.3986 90.1718 92.8169 89.0099 92.8739C87.4433 92.9506 86.062 94.5721 85.6352 93.835C85.4919 93.5873 85.634 92.9953 85.5938 92.3022C85.5264 91.1406 85.6349 89.8457 84.6045 89.0967C83.743 88.4706 81.2061 87.2246 79.5046 87.9219C78.9898 88.1329 78.1238 88.2701 77.8121 88.9802Z" stroke="#007C37" stroke-width="2" stroke-linecap="round"/>
<path d="M55.321 44.7101C55.6253 44.7034 55.935 44.7225 56.1804 44.7355C56.4457 44.7495 56.6474 44.7581 56.82 44.7472C57.2958 44.7173 57.8089 44.8556 58.2341 45.13C58.7304 45.4504 59.0905 45.9769 59.2009 46.6339C59.2989 47.218 59.1776 47.8844 59.1052 48.3214C59.0148 48.8661 58.4995 49.2348 57.9548 49.1447C57.4102 49.0544 57.0416 48.5399 57.1316 47.9952C57.2229 47.4442 57.2599 47.1499 57.2292 46.9659C57.219 46.9051 57.2015 46.8686 57.1892 46.8497C57.1765 46.8304 57.1628 46.8179 57.1501 46.8097C57.1124 46.7854 57.0665 46.766 57.0222 46.754C57.001 46.7483 56.9819 46.7449 56.9675 46.7433C56.9606 46.7426 56.9548 46.7424 56.9509 46.7423C56.9473 46.7422 56.945 46.7423 56.945 46.7423C56.6409 46.7615 56.3306 46.7461 56.0749 46.7325C55.7991 46.7179 55.5767 46.7044 55.365 46.7091C54.9377 46.7186 54.7904 46.8012 54.7107 46.8859C54.6016 47.0017 54.4922 47.1815 54.322 47.4454C54.2675 47.5299 54.1518 47.7124 54.0173 47.8488C53.9828 47.8837 53.7517 48.1308 53.3689 48.1798C53.1208 48.2115 52.8545 48.1537 52.6306 47.9913C52.4336 47.8484 52.3341 47.6721 52.2868 47.5675C52.2687 47.5275 52.2492 47.478 52.24 47.4562C52.2276 47.4269 52.2172 47.405 52.2077 47.3849C52.189 47.345 52.1758 47.3237 52.1677 47.3126L52.1657 47.3107C52.1639 47.3103 52.1613 47.3112 52.1589 47.3107C51.7323 47.211 51.3609 47.1441 51.0661 47.1124C50.9192 47.0967 50.8007 47.0903 50.7107 47.0909C50.6244 47.0915 50.5853 47.099 50.5808 47.0997C49.6943 47.3062 49.0929 47.387 48.7654 48.2697C48.4192 49.2025 48.1563 50.1934 48.0173 51.0226C47.9477 51.4376 47.9126 51.7933 47.9089 52.0695C47.9052 52.3417 47.9339 52.4557 47.9362 52.4679C48.0831 52.8165 48.2901 53.2123 48.5027 53.5519C48.6083 53.7206 48.7092 53.8657 48.7976 53.9786C48.8415 54.0347 48.8795 54.0798 48.9099 54.1124C48.9243 54.1279 48.9363 54.1393 48.945 54.1476C48.9532 54.1554 48.9584 54.159 48.9587 54.1593C49.3887 54.5056 49.4562 55.1354 49.1101 55.5656C48.7639 55.9955 48.135 56.0636 47.7048 55.7179C47.3721 55.4501 47.0527 55.0053 46.8073 54.6134C46.5426 54.1904 46.2842 53.6994 46.0925 53.2443C45.9336 52.8669 45.9038 52.421 45.9089 52.0421C45.9145 51.6338 45.9641 51.1717 46.0446 50.6915C46.2059 49.7297 46.5033 48.6165 46.8904 47.5734C47.6457 45.5387 49.4439 45.3105 50.1267 45.1515C50.4859 45.0679 50.9056 45.084 51.28 45.1241C51.6801 45.1671 52.1362 45.2505 52.615 45.3624C52.8354 45.414 53.0251 45.4951 53.1882 45.5919C53.2106 45.5662 53.2317 45.5391 53.2546 45.5148C53.8905 44.8396 54.7164 44.7235 55.321 44.7101Z" fill="#007C37"/>
<path d="M76.2256 42.8412C76.3159 42.2963 76.8312 41.9277 77.376 42.0179C77.9049 42.1056 78.6851 42.2622 79.4092 42.4369C79.7716 42.5243 80.131 42.6191 80.4424 42.7142C80.7344 42.8034 81.0503 42.9123 81.2871 43.0394C81.9251 43.3822 82.3758 43.9863 82.669 44.4916C82.9742 45.0177 83.1896 45.5772 83.2998 45.9945H83.2989C83.5879 46.919 83.4915 48.0536 83.2969 49.0707L83.294 49.0902L83.2881 49.1078C83.2343 49.3398 83.1749 49.5495 83.0684 49.7767C82.9705 49.9856 82.8451 50.1836 82.7061 50.3988C82.4064 50.8622 81.788 50.995 81.3242 50.6957C80.8605 50.3961 80.7272 49.7777 81.0264 49.3138C81.1692 49.0929 81.2237 48.9988 81.2569 48.9281C81.2805 48.8776 81.3016 48.8199 81.336 48.6742C81.5185 47.7103 81.5237 46.9873 81.3838 46.5687L81.3741 46.5365L81.3662 46.5062C81.2996 46.2536 81.151 45.8601 80.9395 45.4955C80.7161 45.1105 80.4955 44.8854 80.3409 44.8021C80.2902 44.7749 80.137 44.7117 79.8575 44.6263C79.5973 44.5469 79.2801 44.4632 78.9405 44.3812C78.2596 44.217 77.5265 44.0697 77.0489 43.9906C76.5042 43.9002 76.1354 43.3859 76.2256 42.8412Z" fill="#007C37"/>
<path d="M82.5922 85.0149C82.7231 84.4789 83.2639 84.1503 83.8002 84.2805C84.3365 84.4111 84.6658 84.9521 84.5355 85.4885L83.5638 85.2522L84.5355 85.4905V85.4924C84.5351 85.4936 84.5339 85.495 84.5336 85.4963C84.5329 85.4993 84.5326 85.5032 84.5316 85.5071C84.5295 85.5153 84.5261 85.526 84.5228 85.5383C84.5161 85.5632 84.5066 85.5962 84.4945 85.637C84.4701 85.719 84.4344 85.8329 84.3842 85.9729C84.2837 86.2528 84.1255 86.6404 83.89 87.0999C83.4185 88.0196 82.6329 89.2302 81.3676 90.4368C78.8164 92.8692 74.4118 95.196 66.9711 95.2444C59.5304 95.2927 55.0965 93.0233 52.514 90.6243C51.233 89.4342 50.432 88.2341 49.9486 87.3206C49.7071 86.8641 49.5448 86.4781 49.4408 86.1995C49.3888 86.0601 49.35 85.9472 49.3246 85.8655C49.312 85.8249 49.3033 85.7916 49.2963 85.7668C49.2928 85.7545 49.2887 85.7438 49.2865 85.7356C49.2855 85.7317 49.2853 85.7277 49.2845 85.7249C49.2841 85.7236 49.2829 85.722 49.2826 85.7209V85.719C49.2833 85.718 49.3136 85.7099 50.2513 85.469L49.2826 85.717C49.1456 85.1824 49.4678 84.6387 50.0023 84.5012C50.5367 84.3641 51.0802 84.685 51.2181 85.219C51.2192 85.2186 51.2182 85.2181 51.2181 85.218C51.2185 85.2189 51.2196 85.2197 51.2201 85.2209C51.2225 85.2296 51.2273 85.247 51.2347 85.2708C51.2497 85.3189 51.2754 85.3973 51.3138 85.5002C51.3908 85.7062 51.5198 86.0119 51.7172 86.385C52.1121 87.1314 52.7824 88.1441 53.8754 89.1594C56.041 91.1712 59.9645 93.2898 66.9584 93.2444C73.9524 93.1989 77.8483 91.0293 79.9877 88.9895C81.0672 87.9601 81.7245 86.9392 82.1097 86.1877C82.3023 85.812 82.4271 85.5041 82.5013 85.2971C82.5384 85.1939 82.5631 85.116 82.5775 85.0676C82.5847 85.0435 82.5888 85.0256 82.5912 85.0168L82.5922 85.0129V85.0149ZM51.2191 85.217V85.218H51.2181V85.217H51.2191Z" fill="black"/>
<ellipse cx="56.9666" cy="76.5944" rx="3.33134" ry="4.99701" transform="rotate(0.0246139 56.9666 76.5944)" fill="black"/>
<ellipse cx="76.9552" cy="76.6029" rx="3.33134" ry="4.99701" transform="rotate(0.0246139 76.9552 76.6029)" fill="black"/>
<path d="M48.004 114.703C48.2542 113.453 49.2917 107.661 52.477 105.113" stroke="#CC3333" stroke-linecap="round"/>
<path d="M95.7964 118.491C96.6458 117.982 97.3254 117.778 98.3447 115.943" stroke="#FFDF8D" stroke-width="3" stroke-linecap="round"/>
<path d="M67.2244 98.2722C75.2374 98.3176 79.9829 102.87 82.6296 107.229C83.9435 109.393 84.7654 111.538 85.2588 113.132C85.3968 113.578 85.5088 113.984 85.6005 114.339L89.7543 114.323C94.1421 114.305 97.5011 118.297 96.5146 122.572C93.8339 134.186 90.6171 140.255 83.2302 143.939C82.3705 144.368 81.4109 144.555 80.4501 144.554L56.1449 144.53C54.7029 144.528 53.2863 144.091 52.1367 143.22C44.5794 137.497 41.0904 131.958 38.998 122.378C38.0975 118.255 41.4081 114.518 45.6284 114.501L49.0534 114.486C49.1474 114.069 49.2739 113.562 49.4398 112.988C49.9003 111.397 50.6785 109.254 51.9514 107.097C54.5208 102.742 59.1975 98.227 67.2244 98.2722ZM79.2101 109.305C77.033 105.719 73.401 102.306 67.2016 102.271C61.016 102.236 57.4835 105.593 55.3967 109.13C54.3416 110.918 53.6794 112.727 53.2822 114.1C53.2453 114.228 53.2113 114.351 53.179 114.47L81.4495 114.355C81.4455 114.342 81.4418 114.329 81.4377 114.316C81.0106 112.936 80.3077 111.113 79.2101 109.305Z" fill="#F44336"/>
<path d="M61.2023 125.439L65.3559 132.558L69.351 125.635L73.3787 132.54L77.4986 125.4" stroke="white" stroke-width="2" stroke-linecap="round"/>
<path d="M59.658 127.047L79.2015 127.001" stroke="white" stroke-width="2" stroke-linecap="round"/>
<ellipse cx="44.3867" cy="106.804" rx="9.74715" ry="11.2467" fill="#FFC261"/>
<ellipse cx="90.2543" cy="106.804" rx="9.74715" ry="11.2467" fill="#FFC261"/>
<path d="M21.22 139.298C24.2966 137.574 29.1921 140.462 32.1545 145.749C35.1169 151.036 35.0242 156.72 31.9475 158.443C30.4638 159.275 28.5585 159.032 26.6497 157.966C24.162 156.773 21.7211 154.384 20.1272 151.993C18.5823 149.676 18.5835 146.365 18.8518 144.403C18.8688 142.063 19.6607 140.172 21.22 139.298Z" fill="#FFDF8D"/>
<path d="M112.482 139.297C109.405 137.573 104.508 140.462 101.546 145.749C98.5838 151.036 98.6767 156.719 101.753 158.443C103.237 159.275 105.144 159.032 107.054 157.965C109.541 156.772 111.981 154.383 113.574 151.993C115.119 149.676 115.117 146.366 114.849 144.404C114.832 142.063 114.041 140.171 112.482 139.297Z" fill="#FFDF8D"/>
<path d="M96.1234 141.297C98.1875 139.796 103.329 137.019 107.382 137.92" stroke="#FFDF8D" stroke-width="2" stroke-linecap="round"/>
<path d="M37.5779 140.91C35.5138 139.409 30.3723 136.632 26.3192 137.532" stroke="#FFDF8D" stroke-width="2" stroke-linecap="round"/>
</svg>
