<svg width="20" height="20" viewBox="0 0 20 20" fill="none" xmlns="http://www.w3.org/2000/svg">
<path d="M10 11.0752C14.4748 11.0752 18.8535 13.7659 19.1484 19.0137C19.14 19.02 19.1232 19.03 19.0967 19.0312C16.5976 19.1505 4.95074 19.2241 0.90332 19.0312C0.875615 19.0299 0.858584 19.0191 0.850586 19.0127C1.146 13.7666 5.5256 11.0752 10 11.0752ZM10 0.849609C10.9972 0.84961 11.9434 1.22197 12.6328 1.86816C13.3204 2.5126 13.6953 3.37471 13.6953 4.26074C13.6952 5.14659 13.3202 6.00801 12.6328 6.65234C11.9434 7.29853 10.9972 7.6709 10 7.6709C9.00277 7.6709 8.05663 7.29853 7.36719 6.65234C6.6798 6.00801 6.3048 5.14659 6.30469 4.26074C6.30469 3.37471 6.67965 2.5126 7.36719 1.86816C8.05663 1.22197 9.00277 0.849609 10 0.849609Z" stroke="black" stroke-width="1.7"/>
</svg>
