<svg width="125" height="133" viewBox="0 0 125 133" fill="none" xmlns="http://www.w3.org/2000/svg">
<path d="M40.9269 20.497L4.78279 86.743C3.6705 88.7816 3.29178 91.1767 4.44064 93.195C7.71775 98.952 18.383 110.224 51.6515 110.183C85.4057 110.142 96.1755 99.3198 99.5092 93.61C100.728 91.5219 100.251 89.0345 98.9927 86.9696L58.2453 20.0839C54.239 13.5076 44.6151 13.7372 40.9269 20.497Z" fill="#FFDF8D"/>
<circle cx="25.3661" cy="74.804" r="7.06174" transform="rotate(9.40849 25.3661 74.804)" fill="#F44336"/>
<circle cx="37.7602" cy="86.4014" r="4.70783" transform="rotate(9.40849 37.7602 86.4014)" fill="#F44336"/>
<ellipse cx="74.3288" cy="85.3028" rx="12.358" ry="11.7696" transform="rotate(9.40849 74.3288 85.3028)" fill="#F44336"/>
<path fill-rule="evenodd" clip-rule="evenodd" d="M69.3144 52.0051C72.2846 52.4973 75.1811 51.8664 77.569 50.4232L64.8664 29.794C62.0208 31.5709 59.9242 34.5132 59.3332 38.0803C58.2402 44.6762 62.709 50.9106 69.3144 52.0051Z" fill="#F44336"/>
<path d="M58.8845 69.8375C58.2348 71.3173 57.9453 74.6374 57.9825 75.1068C57.6726 75.4043 57.135 75.8397 56.4698 76.5188C55.6927 77.5256 54.9626 78.062 54.7051 78.9354C54.309 80.2789 53.6544 82.3568 54.4322 82.8815C55.5142 83.6115 57.7516 83.7804 59.1238 83.3337C59.9531 83.0638 60.7718 82.8244 61.4744 82.2949C62.2045 81.7445 62.8795 80.2686 63.509 80.7115C64.1085 81.1334 65.5494 81.7892 66.9275 81.6556C67.8161 81.5694 70.0265 80.836 70.7942 79.5261C70.996 79.1819 71.5589 78.3059 71.3046 77.1299C70.9917 75.6829 70.4327 74.5764 69.6606 73.7149C69.2935 73.3053 68.5852 72.8488 67.6732 72.8935C66.4437 72.9537 65.3596 74.2264 65.0246 73.6478C64.9121 73.4534 65.0236 72.9888 64.9921 72.4448C64.9392 71.5331 65.0244 70.5167 64.2156 69.9289C63.5395 69.4374 61.5483 68.4596 60.2129 69.0069C59.8088 69.1724 59.1291 69.2801 58.8845 69.8375Z" stroke="#007C37" stroke-width="2" stroke-linecap="round"/>
<path d="M35.746 43.1195C35.4434 42.8759 34.9781 42.1159 34.7123 41.4849C34.4716 40.9135 34.7755 39.1631 35.3511 37.6121C35.776 36.4669 36.7176 36.3459 37.3334 36.2025C37.6317 36.133 38.2182 36.2018 38.9291 36.368C39.3797 36.4733 39.4942 36.8514 39.5661 37.0106C39.6366 37.1665 39.884 36.5775 40.1818 36.2612C40.7435 35.6646 41.7085 35.9507 42.4577 35.9034C42.6535 35.891 42.8912 35.9503 43.0928 36.0804C43.2944 36.2106 43.4532 36.4303 43.5037 36.7318C43.5543 37.0333 43.4919 37.4098 43.4276 37.7978" stroke="#007C37" stroke-width="2" stroke-linecap="round"/>
<path d="M58.4141 33.7527C59.2041 33.8836 60.7887 34.2291 61.2404 34.4715C61.8629 34.8058 62.2937 35.7744 62.4325 36.3004C62.6108 36.8328 62.5699 37.5758 62.4187 38.3664C62.3476 38.6729 62.2881 38.7874 62.0668 39.13" stroke="#007C37" stroke-width="2" stroke-linecap="round"/>
<path d="M21.2009 85.1313L15.2021 87.3925C13.8751 87.8927 12.3791 87.3953 11.6157 86.2001L10.3152 84.164C9.08877 82.2438 6.25369 82.3378 5.15717 84.3351L4.05799 86.3372C2.93109 88.3898 2.55073 90.8058 3.71984 92.8347C7.05555 98.6235 17.8937 109.958 51.6365 110.011C85.0572 110.065 96.2593 99.7538 99.9185 93.9396C101.375 91.6248 100.816 88.7915 99.3488 86.4832L98.0786 84.4847C97.625 83.771 96.8913 83.2819 96.0581 83.1378L95.5185 83.0444C94.2606 82.8268 93.0028 83.429 92.3837 84.5454L86.186 95.719C85.2094 97.4796 82.8102 97.7976 81.4087 96.3523L73.2506 87.9386C71.9662 86.614 69.8018 86.7517 68.6957 88.2285L60.518 99.1463C59.4304 100.598 57.3129 100.76 56.0172 99.4905L49.8587 93.4555C48.8063 92.4242 47.1607 92.3098 45.9757 93.1857L42.7554 95.566C41.3992 96.5684 39.4797 96.2287 38.5499 94.8217C37.353 93.0104 34.6741 93.0738 33.5643 94.9397L31.3944 98.5878C29.8837 101.128 25.9981 100.183 25.8214 97.2336L25.2536 87.759C25.1327 85.7416 23.092 84.4184 21.2009 85.1313Z" fill="#FFC261"/>
<path d="M37.2529 67.0815C37.2529 67.0815 39.0414 74.0425 50.3713 73.9688C61.7013 73.8951 63.399 66.9115 63.399 66.9115" stroke="black" stroke-width="2" stroke-linecap="round"/>
<ellipse cx="42.5236" cy="60.1162" rx="2.61466" ry="3.92199" transform="rotate(0.0246139 42.5236 60.1162)" fill="black"/>
<ellipse cx="58.2121" cy="60.1231" rx="2.61466" ry="3.92199" transform="rotate(0.0246139 58.2121 60.1231)" fill="black"/>
<path d="M97.6526 69.3473C104.137 69.384 107.981 73.0804 110.109 76.5849C111.164 78.3221 111.821 80.0404 112.215 81.3148C112.34 81.7164 112.436 82.0787 112.514 82.3872L113.516 82.3834C117.904 82.3658 121.293 86.3624 120.212 90.6151C118.219 98.455 115.713 102.771 110.491 105.48C109.638 105.922 108.678 106.104 107.717 106.103L89.4311 106.086C87.989 106.084 86.569 105.649 85.4288 104.766C80.2013 100.718 77.5362 96.729 75.8929 90.3649C74.8379 86.2787 78.1924 82.526 82.4126 82.509L82.9499 82.5061C83.0272 82.1535 83.1324 81.7119 83.2783 81.208C83.6465 79.9354 84.2701 78.2184 85.2925 76.4856C87.3611 72.9799 91.1548 69.3107 97.6526 69.3473ZM106.69 78.661C105.032 75.9299 102.301 73.3741 97.6305 73.3476C92.9738 73.3213 90.3238 75.8308 88.7378 78.5186C87.9332 79.8824 87.4254 81.2668 87.1204 82.3207C87.1038 82.3782 87.0878 82.4347 87.0725 82.4899L108.364 82.4032C108.033 81.3555 107.503 80.001 106.69 78.661Z" fill="#F44336"/>
<path d="M92.9238 91.1008L96.1838 96.689L99.3194 91.2553L102.481 96.6741L105.714 91.0707" stroke="white" stroke-width="2" stroke-linecap="round"/>
<path d="M91.7115 92.3636L107.051 92.3274" stroke="white" stroke-width="2" stroke-linecap="round"/>
<ellipse cx="88.4505" cy="68.551" rx="7.65022" ry="8.82717" fill="#FFC261"/>
<path d="M30.2809 115.048C28.9041 109.257 30.4158 106.841 31.5516 103.271L42.7327 105.037C43.8834 116.256 44.2138 121.455 43.9386 124.204C43.708 126.509 41.8058 128.125 39.7534 129.199C33.3844 132.53 23.3349 135.159 22.1358 129.164C21.1704 124.337 24.1829 121.435 27.3765 120.081C29.2983 119.267 30.7637 117.078 30.2809 115.048Z" fill="#FFC261"/>
<path d="M71.0101 115.048C72.3869 109.257 70.8753 106.841 69.7394 103.271L58.5583 105.037C57.4076 116.256 57.0773 121.455 57.3524 124.204C57.583 126.509 59.4852 128.125 61.5376 129.199C67.9067 132.53 77.9562 135.159 79.1552 129.164C80.1206 124.337 77.1082 121.435 73.9145 120.081C71.9928 119.267 70.5273 117.078 71.0101 115.048Z" fill="#FFC261"/>
<path d="M75.5042 89.7363C75.2553 86.948 76.7973 82.6745 82.5652 82.6745C82.7616 81.6937 83.2721 79.4967 83.7429 78.5552" stroke="#CC3333" stroke-linecap="round"/>
</svg>
