<svg width="74" height="87" viewBox="0 0 74 87" fill="none" xmlns="http://www.w3.org/2000/svg">
<path d="M11.9922 86.929L68.9922 29.929C68.9922 29.929 59.4922 19.429 43.4922 13.429C27.4922 7.42896 11.9922 7.42896 11.9922 7.42896V86.929Z" fill="#FFDF8D"/>
<path fill-rule="evenodd" clip-rule="evenodd" d="M19.8221 70.2713C17.5448 72.2406 14.7446 73.2134 11.9545 73.2279L12.0299 49.0016C15.3846 49.0331 18.7082 50.4496 21.0733 53.1844C25.4467 58.2415 24.8865 65.8916 19.8221 70.2713Z" fill="#F44336"/>
<circle cx="47.9922" cy="41.429" r="3" transform="rotate(180 47.9922 41.429)" fill="#F44336"/>
<circle cx="46.4922" cy="31.929" r="4.5" transform="rotate(180 46.4922 31.929)" fill="#F44336"/>
<circle cx="26.4922" cy="14.929" r="6.5" transform="rotate(180 26.4922 14.929)" fill="#F44336"/>
<path d="M19.7182 14.7632L18.1421 13.2852C17.2629 12.4607 15.9265 12.3646 14.9384 13.0546L14.78 13.1653C13.2638 14.2241 11.1671 13.2728 10.9654 11.4345C10.7581 9.5452 11.2264 7.60479 12.7904 6.52489C16.5505 3.92859 25.8231 0.577027 44.9689 8.47383C63.2349 16.0078 68.1786 24.124 69.4307 28.7632C70.0831 31.1805 68.6079 33.4066 66.5584 34.8447L66.3724 34.9752C65.8572 35.3367 65.2133 35.464 64.5992 35.3257C63.6723 35.117 62.9789 34.3445 62.8712 33.4004L62.1287 26.8937C61.9004 24.8935 59.8057 23.6813 57.9577 24.4801L53.5246 26.3964C51.831 27.1286 49.8842 26.1728 49.4276 24.3851L47.8721 18.2954C47.4231 16.5376 45.5289 15.5775 43.8458 16.2545L40.6887 17.5246C39.3217 18.0745 37.7577 17.5502 36.9983 16.2876L36.1429 14.8654C35.5843 13.9367 34.3612 13.6662 33.4631 14.2728C32.307 15.0537 30.7321 14.3571 30.5322 12.9763L30.3981 12.0501C30.0482 9.6337 26.7838 9.12553 25.7159 11.3213L24.4682 13.8868C23.5843 15.7044 21.1925 16.1456 19.7182 14.7632Z" fill="#FFC261"/>
<path d="M18.9024 60.0524C20.1626 60.1311 22.676 59.4508 23.0104 59.2972C23.3119 59.4446 23.7758 59.7219 24.4529 60.0272C25.4003 60.3265 25.9902 60.7179 26.7001 60.6719C27.7921 60.6013 29.4924 60.5227 29.6682 59.8111C29.9128 58.8211 29.435 57.1344 28.7384 56.2479C28.3174 55.7121 27.9217 55.1759 27.3443 54.8029C26.7443 54.4153 25.4801 54.317 25.6357 53.7362C25.784 53.1829 25.8776 51.9496 25.4091 50.9747C25.107 50.346 23.9746 48.9217 22.8073 48.7107C22.5005 48.6553 21.7066 48.4779 20.9122 48.9806C19.9349 49.5993 19.2735 50.3068 18.8492 51.1048C18.6474 51.4843 18.503 52.1266 18.781 52.7836C19.1558 53.6693 20.3809 54.1224 20.0465 54.5237C19.9342 54.6585 19.5634 54.7016 19.1728 54.871C18.5182 55.155 17.7498 55.3658 17.536 56.1171C17.3573 56.7452 17.1754 58.4688 17.9359 59.3013C18.166 59.5532 18.4278 60.0228 18.9024 60.0524Z" stroke="#007C37" stroke-width="2" stroke-linecap="round"/>
<path d="M32.2227 31.429C31.4326 31.298 29.848 30.9526 29.3963 30.7101C28.7738 30.3759 28.343 29.4072 28.2042 28.8813C28.026 28.3488 28.0668 27.6059 28.2181 26.8153C28.2891 26.5087 28.3486 26.3943 28.5699 26.0517" stroke="#007C37" stroke-width="2" stroke-linecap="round"/>
<path d="M43.1534 47.6471C43.211 47.6471 43.3559 47.6471 43.6025 47.7047C44.3387 47.8767 44.7805 48.9809 44.9716 49.7831C45.0092 49.9408 44.9865 50.0598 44.9721 50.1623C44.8605 50.957 43.3018 51.603 42.3717 51.8073C41.4881 52.0014 40.7722 51.5192 40.2742 51.2268C40.1833 51.1734 40.1001 51.1107 40.0411 51.1531C39.5723 51.4899 39.8661 52.4742 39.0989 53.2593C37.8499 54.5374 36.6103 54.426 35.6649 54.4268C34.8365 54.4276 34.3407 53.7608 33.989 53.2934C33.5634 52.7279 33.6389 51.5803 33.7402 51.0383C33.8446 50.4794 34.4525 50.0929 34.6716 49.8446C34.9589 49.5189 33.7577 49.1921 33.1754 47.9723C32.6389 46.8481 33.0559 45.8158 33.2165 45.4662C33.412 45.0407 33.9567 44.7386 34.5965 44.5344C34.9295 44.4281 35.3245 44.5623 35.6876 44.6928C36.4292 44.9593 36.8101 45.7259 36.8538 45.7704C37.253 46.1776 37.2736 44.5082 37.9423 43.809C38.8077 42.904 40.0669 42.8759 40.5618 42.8894C41.2068 42.9071 41.4932 43.5131 41.7415 43.9648C41.8729 44.3581 41.9602 44.7072 42.0038 44.9682C42.0187 45.114 42.0187 45.2868 42.0187 45.4649" stroke="#007C37" stroke-width="2" stroke-linecap="round"/>
</svg>
