<svg width="166" height="156" viewBox="0 0 166 156" fill="none" xmlns="http://www.w3.org/2000/svg">
<path d="M17.3047 62.8088C20.8047 60.3088 29.638 61.3088 33.3047 62.3088L29.8047 75.3088C18.8047 81.3088 6.80477 76.809 1.80477 70.309C-3.19523 63.809 2.80477 50.809 12.3048 53.309C19.9048 55.309 18.8047 60.1422 17.3047 62.8088Z" fill="#FFDF8D"/>
<path d="M46.2028 16.5382L17.448 101.431C16.7086 103.614 16.7372 106.007 18.143 107.834C22.5796 113.598 36.4935 125.004 74.8047 118.309C113.699 111.512 123.219 96.5791 125.549 89.6761C126.318 87.3981 125.438 85.0446 123.865 83.2269L63.2343 13.2007C58.1751 7.35746 48.6825 9.21766 46.2028 16.5382Z" fill="#FFDF8D"/>
<path d="M46.3047 66.9988C46.3047 66.9988 49.0139 74.7872 61.9616 73.6216C74.9092 72.456 76.1839 64.3089 76.1839 64.3089" stroke="black" stroke-width="2" stroke-linecap="round"/>
<ellipse cx="51.6668" cy="58.5315" rx="3" ry="4.5" transform="rotate(-4.74682 51.6668 58.5315)" fill="black"/>
<ellipse cx="69.6053" cy="57.0417" rx="3" ry="4.5" transform="rotate(-4.74682 69.6053 57.0417)" fill="black"/>
<circle cx="38.3047" cy="83.3088" r="8" fill="#F44336"/>
<circle cx="53.8047" cy="94.8088" r="5.5" fill="#F44336"/>
<circle cx="95.3047" cy="86.3088" r="14" fill="#F44336"/>
<path d="M36.6949 95.5771L29.7157 99.7224C28.4877 100.452 26.9158 100.214 25.9581 99.1547L23.4587 96.3894C21.9241 94.6915 19.1298 95.2682 18.3929 97.435L17.1559 101.072C16.4087 103.269 16.441 105.679 17.8673 107.51C22.3576 113.273 36.4077 124.64 75.0318 117.958C113.424 111.316 123.454 96.8979 126.074 89.8181C127.017 87.27 125.994 84.6113 124.177 82.5915L121.839 79.9934C121.27 79.3611 120.46 79 119.609 79H118.543C117.263 79 116.124 79.8119 115.707 81.0217L110.67 95.6243C110.011 97.5364 107.686 98.2612 106.057 97.0629L94.5383 88.5925C93.0437 87.4934 90.9197 88.0008 90.0832 89.6569L82.644 104.385C81.8216 106.014 79.7483 106.537 78.2514 105.494L69.5817 99.455C68.364 98.6067 66.7091 98.7762 65.6887 99.8537L62.0906 103.653C60.901 104.909 58.8982 104.901 57.7183 103.636L57.1313 103.007C55.6152 101.381 52.9193 101.911 52.1317 103.99L49.763 110.243C48.7132 113.014 44.7087 112.747 44.0359 109.861L41.1485 97.4753C40.6879 95.4993 38.4394 94.5409 36.6949 95.5771Z" fill="#FFC261"/>
<path fill-rule="evenodd" clip-rule="evenodd" d="M83.3047 50.3088C86.7815 50.3088 89.9623 49.0414 92.4103 46.9435L74.0443 25.8088C71.1378 28.3741 69.3047 32.1274 69.3047 36.3088C69.3047 44.0408 75.5727 50.3088 83.3047 50.3088Z" fill="#F44336"/>
<path d="M74.5708 71.854C74.1107 73.5941 74.4072 77.2859 74.5381 77.7938C74.2416 78.1761 73.7121 78.751 73.0834 79.6162C72.3892 80.8609 71.6597 81.5815 71.5314 82.5856C71.3341 84.1302 70.9811 86.5268 71.9648 86.9607C73.3333 87.5643 75.9104 87.3431 77.3871 86.6042C78.2796 86.1577 79.1659 85.7467 79.8653 85.0386C80.5922 84.3027 81.0818 82.5623 81.8813 82.9335C82.6429 83.287 84.4057 83.7441 85.9481 83.3474C86.9428 83.0916 89.3191 81.8861 89.9455 80.3109C90.1101 79.897 90.5854 78.8345 90.0744 77.5916C89.4457 76.0623 88.6013 74.951 87.5606 74.1469C87.0657 73.7646 86.1739 73.3928 85.1449 73.6075C83.7576 73.8968 82.7641 75.4888 82.274 74.9154C82.1094 74.7228 82.1487 74.1932 82.0103 73.6027C81.7782 72.6129 81.6836 71.4834 80.6527 70.9859C79.7909 70.57 77.3415 69.8598 75.9254 70.7023C75.497 70.9571 74.7441 71.1987 74.5708 71.854Z" stroke="#007C37" stroke-width="2" stroke-linecap="round"/>
<path d="M43.0573 45.8257C42.6698 45.6053 42.0018 44.8271 41.5834 44.1582C41.2045 43.5524 41.2202 41.5003 41.5801 39.624C41.8458 38.2387 42.8869 37.923 43.5558 37.6433C43.8798 37.5078 44.5553 37.4755 45.3895 37.5306C45.9183 37.5655 46.1185 37.9748 46.2295 38.1426C46.3383 38.307 46.5076 37.589 46.7848 37.1723C47.3077 36.3864 48.4515 36.5302 49.2891 36.3348C49.5079 36.2837 49.7876 36.3064 50.0398 36.4166C50.2919 36.5269 50.5124 36.7473 50.6259 37.0813C50.7395 37.4153 50.7395 37.8562 50.7395 38.3105" stroke="#007C37" stroke-width="2" stroke-linecap="round"/>
<path d="M67.0996 30.5388C68.0192 30.5388 69.8793 30.6306 70.4365 30.8164C71.2046 31.0724 71.8744 32.0664 72.1304 32.6236C72.4323 33.1808 72.5255 34.0114 72.5026 34.915C72.4796 35.2677 72.4337 35.4054 72.2473 35.8256" stroke="#007C37" stroke-width="2" stroke-linecap="round"/>
<path d="M46.3337 133.309C45.9337 125.709 50.8337 115.309 52.8337 110.309H69.3337L65.3337 134.809C65.3337 134.809 61.8337 156.809 47.3337 153.309C41.4038 151.877 36.899 147.394 37.3337 141.309C37.8337 134.309 46.3337 133.309 46.3337 133.309Z" fill="#FFC261"/>
<path d="M108.608 137.82C87.2518 143.996 82.2536 123.622 82.4241 112.662L100.562 105.112C95.8761 115.046 102.288 118.839 106.08 119.493C118.882 115.708 123.826 124.953 124.697 130.048C125.477 134.483 125.367 143.684 118.685 145.01C112.004 146.336 109.183 140.769 108.608 137.82Z" fill="#FFC261"/>
<ellipse cx="45.4276" cy="144.803" rx="5.67174" ry="8.95367" transform="rotate(-40.4107 45.4276 144.803)" fill="#FFDF8D"/>
<path d="M120.106 73.6286C125.987 69.2921 131.942 70.0345 136.241 71.7722C138.375 72.6345 140.138 73.7495 141.362 74.6411C141.721 74.9032 142.036 75.1496 142.304 75.3658L144.46 73.7442C147.966 71.1061 153.054 72.2889 154.787 76.32C158.793 85.6381 159.62 91.5862 156.436 97.9996C156.009 98.8598 155.35 99.5817 154.58 100.155L137.317 113.01C136.16 113.871 134.765 114.369 133.323 114.352C125.168 114.26 119.784 112.254 113.438 106.904C110.212 104.183 110.638 99.193 114.011 96.6555L115.681 95.398C115.519 95.0358 115.326 94.5848 115.127 94.0576C114.599 92.6504 114.002 90.6683 113.757 88.4046C113.261 83.831 114.215 77.9731 120.106 73.6286ZM134.742 75.4811C131.282 74.0824 126.901 73.5872 122.48 76.847C118.071 80.0987 117.339 84.3436 117.732 87.973C117.932 89.8106 118.423 91.4567 118.872 92.6508C118.907 92.7431 118.941 92.8324 118.975 92.9187L138.987 77.8616C137.946 77.1047 136.479 76.183 134.742 75.4811Z" fill="#F44336"/>
<path d="M127.203 61.6454C113.937 48.2946 99.1497 51.3159 94.6545 57.0811C95.8299 59.0723 97.8837 64.9669 106.214 68.2242C110.064 69.7295 112.405 73.4526 116.433 75.6811C131.237 83.871 141.737 72.3704 138.476 64.1324C135.867 57.5421 129.874 59.7284 127.203 61.6454Z" fill="#FFDF8D"/>
<path d="M130.508 96.6387L137.34 99.5406L136.495 92.3923L143.121 95.2063L142.249 87.8346" stroke="white" stroke-width="2" stroke-linecap="round"/>
<path d="M130.26 98.6313L144.341 88.0729" stroke="white" stroke-width="2" stroke-linecap="round"/>
<path d="M18.3047 62.8088C17.9714 63.8088 17.0047 66.0088 15.8047 66.8088" stroke="#FFC261" stroke-width="2" stroke-linecap="round"/>
<path d="M117.305 75.3088L107.305 63.3088" stroke="#FFC261" stroke-width="2" stroke-linecap="round"/>
</svg>