<svg width="20" height="20" viewBox="0 0 20 20" fill="none" xmlns="http://www.w3.org/2000/svg">
<path d="M0 10.0005C0 8.53396 0.283318 7.1757 0.849954 5.92576C1.41659 4.67583 2.19155 3.59256 3.17483 2.67594C4.15811 1.75932 5.29138 1.06353 6.57464 0.588555C7.85791 0.113581 9.23283 -0.073909 10.6994 0.0260855C10.9827 0.0594171 11.2077 0.180244 11.3744 0.388566C11.541 0.596888 11.5994 0.842708 11.5494 1.12603C11.4994 1.40934 11.3619 1.63433 11.1369 1.80099C10.9119 1.96765 10.6578 2.04264 10.3744 2.02598C9.2245 1.97598 8.14539 2.13847 7.13711 2.51345C6.12883 2.88843 5.24138 3.44257 4.47476 4.17586C3.70813 4.90915 3.104 5.77161 2.66236 6.76322C2.22071 7.75483 1.99989 8.83394 1.99989 10.0005C1.99989 12.2338 2.77485 14.1253 4.32477 15.6752C5.87468 17.2251 7.76624 18.0001 9.99946 18.0001C11.1494 18.0001 12.2202 17.7793 13.2118 17.3376C14.2034 16.896 15.0658 16.2919 15.7991 15.5252C16.5658 14.7253 17.1324 13.817 17.499 12.8004C17.8657 11.7838 18.024 10.7255 17.974 9.62556C17.9574 9.34225 18.0324 9.08809 18.199 8.86311C18.3657 8.63812 18.5907 8.50062 18.874 8.45063C19.1573 8.40063 19.4031 8.45896 19.6114 8.62562C19.8198 8.79228 19.9406 9.01726 19.9739 9.30058C20.0739 10.7505 19.8864 12.1171 19.4114 13.4004C18.9365 14.6836 18.249 15.8169 17.3491 16.8002C16.3991 17.8335 15.2908 18.6251 14.0242 19.175C12.7576 19.725 11.416 20 9.99946 20C8.6162 20 7.31627 19.7375 6.09967 19.2125C4.88307 18.6876 3.82479 17.9751 2.92484 17.0752C2.02489 16.1752 1.31243 15.1169 0.787457 13.9003C0.262486 12.6837 0 11.3838 0 10.0005Z" fill="#1C1B1F"/>
<circle cx="16.3158" cy="3.68419" r="2.63158" fill="#F44336"/>
</svg>
