<svg width="20" height="22" viewBox="0 0 20 22" fill="none" xmlns="http://www.w3.org/2000/svg">
<path d="M10.0003 0C13.6813 0 17.0003 2.565 17.0003 6V10.539C17.0003 11.181 17.1893 11.808 17.5453 12.342L19.7453 15.64C19.898 15.8685 19.9858 16.1343 19.9992 16.4088C20.0127 16.6834 19.9513 16.9564 19.8216 17.1988C19.6919 17.4412 19.4987 17.6437 19.2628 17.7848C19.027 17.926 18.7571 18.0003 18.4823 18H13.5003C13.5003 18.4596 13.4097 18.9148 13.2338 19.3394C13.0579 19.764 12.8001 20.1499 12.4751 20.4749C12.1501 20.7999 11.7643 21.0577 11.3397 21.2336C10.915 21.4095 10.4599 21.5 10.0003 21.5C9.54063 21.5 9.08551 21.4095 8.66087 21.2336C8.23623 21.0577 7.85039 20.7999 7.52539 20.4749C7.20038 20.1499 6.94257 19.764 6.76668 19.3394C6.59079 18.9148 6.50026 18.4596 6.50026 18H1.51926C1.2445 18.0002 0.974831 17.9259 0.739009 17.7849C0.503187 17.6439 0.310056 17.4415 0.180209 17.1994C0.0503623 16.9572 -0.0113299 16.6844 0.00171116 16.41C0.0147522 16.1355 0.102037 15.8697 0.254259 15.641L2.45426 12.342C2.81027 11.8081 3.00025 11.1807 3.00026 10.539V6C3.00026 2.565 6.31826 0 10.0003 0ZM4.50026 6V10.539C4.50052 11.4767 4.2232 12.3936 3.70326 13.174L1.50326 16.472L1.50026 16.482L1.50126 16.489L1.50526 16.495L1.51126 16.499L1.51826 16.5H18.4823L18.4893 16.499L18.4953 16.495L18.4993 16.489L18.5003 16.483L18.4973 16.473L16.2983 13.174C15.778 12.3937 15.5003 11.4769 15.5003 10.539V6C15.5003 3.636 13.1173 1.5 10.0003 1.5C6.88326 1.5 4.50026 3.636 4.50026 6ZM12.0003 18H8.00026C8.00026 18.5304 8.21097 19.0391 8.58605 19.4142C8.96112 19.7893 9.46983 20 10.0003 20C10.5307 20 11.0394 19.7893 11.4145 19.4142C11.7895 19.0391 12.0003 18.5304 12.0003 18Z" fill="black"/>
<path d="M18.6316 2.65716C18.6316 4.11055 17.4534 5.28874 16 5.28874C14.5466 5.28874 13.3684 4.11055 13.3684 2.65716C13.3684 1.20378 14.5466 0.0255855 16 0.0255855C17.4534 0.0255855 18.6316 1.20378 18.6316 2.65716Z" fill="#F44336"/>
</svg>
