<svg width="12" height="13" viewBox="0 0 12 13" fill="none" xmlns="http://www.w3.org/2000/svg">
<path d="M2.66675 5.8501H4.00008V7.1501H2.66675V5.8501ZM2.66675 8.4501H4.00008V9.7501H2.66675V8.4501ZM5.33341 5.8501H6.66675V7.1501H5.33341V5.8501ZM5.33341 8.4501H6.66675V9.7501H5.33341V8.4501ZM8.00008 5.8501H9.33341V7.1501H8.00008V5.8501ZM8.00008 8.4501H9.33341V9.7501H8.00008V8.4501Z" fill="#6B6B6B"/>
<path d="M1.33333 13H10.6667C11.402 13 12 12.4169 12 11.7V2.6C12 1.88305 11.402 1.3 10.6667 1.3H9.33333V0H8V1.3H4V0H2.66667V1.3H1.33333C0.598 1.3 0 1.88305 0 2.6V11.7C0 12.4169 0.598 13 1.33333 13ZM10.6667 3.9L10.6673 11.7H1.33333V3.9H10.6667Z" fill="#6B6B6B"/>
</svg>
