<svg width="9" height="7" viewBox="0 0 9 7" fill="none" xmlns="http://www.w3.org/2000/svg">
<path d="M8.33333 0.833333V5.83333C8.33333 6.0625 8.25174 6.25868 8.08854 6.42188C7.92535 6.58507 7.72917 6.66667 7.5 6.66667H0.833333C0.604167 6.66667 0.407986 6.58507 0.244792 6.42188C0.0815972 6.25868 0 6.0625 0 5.83333V0.833333C0 0.604167 0.0815972 0.407986 0.244792 0.244792C0.407986 0.0815972 0.604167 0 0.833333 0H7.5C7.72917 0 7.92535 0.0815972 8.08854 0.244792C8.25174 0.407986 8.33333 0.604167 8.33333 0.833333ZM0.833333 1.66667H7.5V0.833333H0.833333V1.66667ZM0.833333 3.33333V5.83333H7.5V3.33333H0.833333Z" fill="white"/>
</svg>
