<svg width="10" height="11" viewBox="0 0 10 11" fill="none" xmlns="http://www.w3.org/2000/svg">
<path fill-rule="evenodd" clip-rule="evenodd" d="M9.06551 0.579988C8.78422 0.298781 8.40276 0.140808 8.00501 0.140808C7.60727 0.140808 7.2258 0.298781 6.94451 0.579988L6.59101 0.933988L9.06601 3.40899L9.41901 3.05549C9.55833 2.9162 9.66884 2.75083 9.74424 2.56882C9.81963 2.38682 9.85844 2.19174 9.85844 1.99474C9.85844 1.79773 9.81963 1.60266 9.74424 1.42065C9.66884 1.23865 9.55833 1.07328 9.41901 0.933988L9.06551 0.579988ZM8.35851 4.11599L5.88351 1.64099L1.33851 6.18649C1.23905 6.28596 1.16958 6.41141 1.13801 6.54849L0.623513 8.77599C0.604342 8.85868 0.606541 8.9449 0.629902 9.02651C0.653264 9.10812 0.697018 9.18243 0.757042 9.24246C0.817067 9.30248 0.891385 9.34624 0.972995 9.3696C1.0546 9.39296 1.14082 9.39516 1.22351 9.37599L3.45151 8.86199C3.58842 8.83034 3.71367 8.76087 3.81301 8.66149L8.35851 4.11599Z" fill="#6B6B6B"/>
</svg>
