<svg width="39" height="39" viewBox="0 0 39 39" fill="none" xmlns="http://www.w3.org/2000/svg">
<mask id="mask0_531_581" style="mask-type:alpha" maskUnits="userSpaceOnUse" x="0" y="0" width="39" height="39">
<rect width="39" height="39" fill="white"/>
</mask>
<g mask="url(#mask0_531_581)">
<path d="M13 32.5H26V27.625C26 25.8375 25.3635 24.3073 24.0906 23.0344C22.8177 21.7615 21.2875 21.125 19.5 21.125C17.7125 21.125 16.1823 21.7615 14.9094 23.0344C13.6365 24.3073 13 25.8375 13 27.625V32.5ZM19.5 17.875C21.2875 17.875 22.8177 17.2385 24.0906 15.9656C25.3635 14.6927 26 13.1625 26 11.375V6.5H13V11.375C13 13.1625 13.6365 14.6927 14.9094 15.9656C16.1823 17.2385 17.7125 17.875 19.5 17.875ZM6.5 35.75V32.5H9.75V27.625C9.75 25.9729 10.1359 24.4224 10.9078 22.9734C11.6797 21.5245 12.7563 20.3667 14.1375 19.5C12.7563 18.6333 11.6797 17.4755 10.9078 16.0266C10.1359 14.5776 9.75 13.0271 9.75 11.375V6.5H6.5V3.25H32.5V6.5H29.25V11.375C29.25 13.0271 28.8641 14.5776 28.0922 16.0266C27.3203 17.4755 26.2437 18.6333 24.8625 19.5C26.2437 20.3667 27.3203 21.5245 28.0922 22.9734C28.8641 24.4224 29.25 25.9729 29.25 27.625V32.5H32.5V35.75H6.5Z" fill="white"/>
</g>
</svg>