<svg width="20" height="20" viewBox="0 0 20 20" fill="none" xmlns="http://www.w3.org/2000/svg">
<path d="M9.98242 0C10.5346 2.41375e-08 10.9823 0.44783 10.9824 1V8.96582H18.9482C19.5003 8.96608 19.9482 9.41371 19.9482 9.96582C19.9482 10.5179 19.5003 10.9656 18.9482 10.9658H10.9824V18.9482C10.9824 19.5005 10.5347 19.9482 9.98242 19.9482C9.43014 19.9482 8.98242 19.5005 8.98242 18.9482V10.9658H1C0.447715 10.9658 0 10.5181 0 9.96582C1.34067e-05 9.41355 0.447723 8.96582 1 8.96582H8.98242V1C8.98256 0.44783 9.43022 -5.1734e-10 9.98242 0Z" fill="#F44336"/>
</svg>
